/* XPM */
static char *result[] = {
/* columns rows colors chars-per-pixel */
"32 32 159 2 ",
"   c black",
".  c #010001",
"X  c #010101",
"o  c #000200",
"O  c #000300",
"+  c #020202",
"@  c #000400",
"#  c #070207",
"$  c #070307",
"%  c #040404",
"&  c #040504",
"*  c #050405",
"=  c gray2",
"-  c #040604",
";  c #060606",
":  c #070707",
">  c #080408",
",  c gray3",
"<  c #090909",
"1  c gray4",
"2  c #080C08",
"3  c #0F0B0F",
"4  c #0F0C0F",
"5  c gray6",
"6  c #0E110E",
"7  c #0F130F",
"8  c #101010",
"9  c #101110",
"0  c #101310",
"q  c gray7",
"w  c #101410",
"e  c #131413",
"r  c #131613",
"t  c #131713",
"y  c gray8",
"u  c #151815",
"i  c #1A161A",
"p  c #1B171B",
"a  c gray11",
"s  c #201F20",
"d  c #231F23",
"f  c #212021",
"g  c #232223",
"h  c #232323",
"j  c #242324",
"k  c #262426",
"l  c #262526",
"z  c #272727",
"x  c #272A27",
"c  c #2D2C2D",
"v  c #2D2D2D",
"b  c #303130",
"n  c #313131",
"m  c #333233",
"M  c #333433",
"N  c #333633",
"B  c #343534",
"V  c #363A36",
"C  c #484948",
"Z  c #4B4A4B",
"A  c #4B4E4B",
"S  c #555855",
"D  c #5F5E5F",
"F  c #5F5F5F",
"G  c #656565",
"H  c #646664",
"J  c #656665",
"K  c #656765",
"L  c #686568",
"P  c #686668",
"I  c #686868",
"U  c #6B6A6B",
"Y  c #6B6C6B",
"T  c #6F6F6F",
"R  c #707470",
"E  c #777977",
"W  c #7B797B",
"Q  c #7B7B7B",
"!  c #7B7D7B",
"~  c gray50",
"^  c #7F817F",
"/  c #838183",
"(  c #8A868A",
")  c #8B8D8B",
"_  c #8E8D8E",
"`  c #908F90",
"'  c #929392",
"]  c #939593",
"[  c #969596",
"{  c #969896",
"}  c #969A96",
"|  c #989598",
" . c #9B999B",
".. c #9C9E9C",
"X. c #9D9E9D",
"o. c gray62",
"O. c #9F9E9F",
"+. c #9FA29F",
"@. c #A2A0A2",
"#. c #A5A3A5",
"$. c #A9A6A9",
"%. c #AAAAAA",
"&. c #ACAAAC",
"*. c #B2B0B2",
"=. c #B3B1B3",
"-. c #B2B3B2",
";. c gray70",
":. c #B3B4B3",
">. c #BBBDBB",
",. c #BDBFBD",
"<. c #BFBDBF",
"1. c #C0C2C0",
"2. c #C7CAC7",
"3. c #C8C7C8",
"4. c #CBC8CB",
"5. c #CDCECD",
"6. c #CDD0CD",
"7. c #D2CFD2",
"8. c #D0D1D0",
"9. c #D2D1D2",
"0. c #D0D4D0",
"q. c #D5D5D5",
"w. c #D5D6D5",
"e. c #DBD9DB",
"r. c #DBDADB",
"t. c gray86",
"y. c #D8DCD8",
"u. c #DEDDDE",
"i. c gray87",
"p. c #E3DFE3",
"a. c #E2E2E2",
"s. c #E6E6E6",
"d. c #E7EBE7",
"f. c #E9E6E9",
"g. c #EBE8EB",
"h. c gray92",
"j. c #EDE9ED",
"k. c #EDEAED",
"l. c #EFEBEF",
"z. c #EFEFEF",
"x. c #EFF3EF",
"c. c #F1F0F1",
"v. c #F2F3F2",
"b. c #F2F4F2",
"n. c #F7F3F7",
"m. c #F6F7F6",
"M. c gray97",
"N. c #F7FBF7",
"B. c #F8F8F8",
"V. c #FBFBFB",
"C. c #FFFBFF",
"Z. c gray99",
"A. c #FCFDFC",
"S. c #FDFDFD",
"D. c #FDFEFD",
"F. c #FEFEFE",
"G. c #FFFEFF",
"H. c white",
"J. c None",
/* pixels */
"J.J.J.J.J.J.J.J.J.J.J.J.J.J.J.J.J.J.J.J.J.J.J.J.J.J.J.J.J.J.J.J.",
"J.J.J.J.J.J.J.J.J.J.J.J.J.J.J.J.J.J.J.J.J.J.J.J.J.J.J.J.J.J.J.J.",
"J.J.J.J.J.J.J.J.J.J.J.J.: ;         ; : J.J.J.J.J.J.J.J.J.J.J.J.",
"J.J.J.J.J.J.J.J.J.  O B H E +.+.+.+.Q I M O . J.J.J.J.J.J.J.J.J.",
"J.J.J.J.J.J.J.  y Q i.H.A.H.H.H.H.H.H.A.H.u.Q y   J.J.J.J.J.J.J.",
"J.J.J.J.J.J.J.h a.M.H.H.H.H.H.H.H.H.H.H.H.H.M.a.g J.J.J.J.J.J.J.",
"J.J.J.J.J.J.5 %.H.H.H.H.H.H.H.H.H.H.H.H.H.H.H.H.:.o J.J.J.J.J.J.",
"J.J.J.J.J.J.h M.H.H.H.H.H.H.H.H.H.H.H.H.H.H.H.H.z.x J.J.J.J.J.J.",
"J.J.J.J.J.  $.C.H.H.H.H.H.H.H.H.H.H.H.H.H.H.H.H.C.#.  J.J.J.J.J.",
"J.J.J.J.J.s k.C.H.H.H.H.H.H.H.H.H.H.H.H.H.H.H.H.C.j.f J.J.J.J.J.",
"J.J.J.J.o ) F.H.H.H.H.H.H.H.H.H.H.H.H.H.H.H.H.H.H.F.) O J.J.J.J.",
"J.J.J.J.t t.H.H.H.H.H.H.H.H.H.H.H.H.H.H.H.H.H.H.H.H.t.t J.J.J.J.",
"J.J.J.J.3 N.H.H.N.N.H.H.H.H.H.H.H.H.H.H.H.H.n.n.H.H.x.e J.J.J.J.",
"J.J.J.J.3 ,.H.v.P X.c.H.H.H.H.H.H.H.H.H.H.s.` Q Z.H.2.  J.J.J.J.",
"J.J.J.J.$ _ C. .X + i ( f.C.H.H.H.H.M.8.T q X = 4.C._ $ J.J.J.J.",
"J.J.J.J.# L C.D X + > > u <.H.H.H.G.{ w       X | C.L # J.J.J.J.",
"J.J.J.J.J.m C.J         2 p.H.H.H.H.} w + + @ @ ..N.b J.J.J.J.J.",
"J.J.J.J.J.1 g.*.&     * Y n.H.D.D.H.N.V + X @ 0 y.d.< J.J.J.J.J.",
"J.J.J.J.J.- r.H.-.K U >.Z.H.z.W ~ N.H.m.o.G R 0.H.e.% J.J.J.J.J.",
"J.J.J.J.J.- 9.H.H.H.N.N.H.H.@.> > >.H.H.H.H.N.N.H.7.% J.J.J.J.J.",
"J.J.J.J.J.X [ M.H.H.H.H.H.Z.C @ @ S Z.H.H.H.H.H.N.] X J.J.J.J.J.",
"J.J.J.J.J.J.d / b.H.H.H.H.B.6 @ @ N V.H.H.H.H.v.^ a J.J.J.J.J.J.",
"J.J.J.J.J.J.J.X A H.H.H.H.M.2 2 , n V.H.H.H.C.Z X J.J.J.J.J.J.J.",
"J.J.J.J.J.J.J.J.7 h.H.H.H.S.w.w.q.q.F.H.H.H.C.j J.J.J.J.J.J.J.J.",
"J.J.J.J.J.J.J.J.o &.H.H.N.N.H.H.H.H.N.N.H.H.5.O J.J.J.J.J.J.J.J.",
"J.J.J.J.J.J.J.J.o F Z.F.1.6.H.3.3.H.6.1.F.F.! O J.J.J.J.J.J.J.J.",
"J.J.J.J.J.J.J.J.J.= =.l.4 c z.t p x.v 5 z.t.q J.J.J.J.J.J.J.J.J.",
"J.J.J.J.J.J.J.J.J.J.r O.> k z.@ > x.l , ;.z   J.J.J.J.J.J.J.J.J.",
"J.J.J.J.J.J.J.J.J.J.J.X   9 '     ' 8   + J.J.J.J.J.J.J.J.J.J.J.",
"J.J.J.J.J.J.J.J.J.J.J.J.J.J.        J.J.J.J.J.J.J.J.J.J.J.J.J.J.",
"J.J.J.J.J.J.J.J.J.J.J.J.J.J.J.J.J.J.J.J.J.J.J.J.J.J.J.J.J.J.J.J.",
"J.J.J.J.J.J.J.J.J.J.J.J.J.J.J.J.J.J.J.J.J.J.J.J.J.J.J.J.J.J.J.J."
};
