/* XPM */
static char *result[] = {
/* columns rows colors chars-per-pixel */
"32 32 19 1 ",
"  c #010101",
". c #070707",
"X c #080708",
"o c gray3",
"O c #080908",
"+ c #0E0E0E",
"@ c #0E100E",
"# c gray94",
"$ c #F0F1F0",
"% c #F1F1F1",
"& c #F6F6F6",
"* c #F6F7F6",
"= c gray97",
"- c #F6F9F6",
"; c #F7F9F7",
": c #F8F8F8",
"> c #FFFEFF",
", c white",
"< c None",
/* pixels */
"<<<<<<<<<<<<<<<<<<<<<<<<<<<<<<<<",
"<<<<<<<<<<<<<<<<<<<<<<<<<<<<<<<<",
"<<<<<<<<<<<<<<<<<<<<<<<<<<<<<<<<",
"<<<<<<<<<<<<<<<<<<<<<<<<<<<<<<<<",
"<<<<<<<<<<<<<<<<<<<<<<<<<<<<<<<<",
"<<<<<<<<<<<<<<<<<<<<<<<<<<<<<<<<",
"<<<<<<<<<<<<<<<<<<<<<<<<<<<<<<<<",
"<<<<<<<<<<<<< .... <<<<<<<<<<<<<",
"<<<<<<<<<<<<<.%*=$X<<<<<<<<<<<<<",
"<<<<<<<<<<<<<.=,,&X<<<<<<<<<<<<<",
"<<<<<<<<<<<<<.;,,*X<<<<<<<<<<<<<",
"<<<<<<<<<<<<<.;,,&X<<<<<<<<<<<<<",
"<<<<<<<<<<<<<O=,,*o<<<<<<<<<<<<<",
"<<<<<<< ....O@:,,&+o.... <<<<<<<",
"<<<<<<<.%*;-=:>,,>:*;-=$X<<<<<<<",
"<<<<<<<.=,,,,,,,,,,,,,,&X<<<<<<<",
"<<<<<<<.=,,,,,,,,,,,,,,*X<<<<<<<",
"<<<<<<<.#&&&&&>,,>&&&&&#X<<<<<<<",
"<<<<<<< ....o+:,,*+o.... <<<<<<<",
"<<<<<<<<<<<<<o=,,&o<<<<<<<<<<<<<",
"<<<<<<<<<<<<<.;,,*X<<<<<<<<<<<<<",
"<<<<<<<<<<<<<.;,,&X<<<<<<<<<<<<<",
"<<<<<<<<<<<<<.=,,*X<<<<<<<<<<<<<",
"<<<<<<<<<<<<<.#&&#X<<<<<<<<<<<<<",
"<<<<<<<<<<<<< .... <<<<<<<<<<<<<",
"<<<<<<<<<<<<<<<<<<<<<<<<<<<<<<<<",
"<<<<<<<<<<<<<<<<<<<<<<<<<<<<<<<<",
"<<<<<<<<<<<<<<<<<<<<<<<<<<<<<<<<",
"<<<<<<<<<<<<<<<<<<<<<<<<<<<<<<<<",
"<<<<<<<<<<<<<<<<<<<<<<<<<<<<<<<<",
"<<<<<<<<<<<<<<<<<<<<<<<<<<<<<<<<",
"<<<<<<<<<<<<<<<<<<<<<<<<<<<<<<<<"
};
