/* XPM */
static char *result[] = {
/* columns rows colors chars-per-pixel */
"32 32 65 1 ",
"  c black",
". c #010101",
"X c #000200",
"o c #020202",
"O c gray1",
"+ c #060306",
"@ c #070307",
"# c #040404",
"$ c #060606",
"% c #070707",
"& c #080708",
"* c gray3",
"= c #0F0A0F",
"- c #0F0B0F",
"; c #0C0D0C",
": c #0F130F",
"> c #131713",
", c #171317",
"< c #171617",
"1 c gray9",
"2 c gray10",
"3 c #1B1B1B",
"4 c #232323",
"5 c #2A2A2A",
"6 c #2F2C2F",
"7 c #302F30",
"8 c #333233",
"9 c #333433",
"0 c #363336",
"q c #373437",
"w c gray22",
"e c #393939",
"r c gray42",
"t c gray50",
"y c #8B8F8B",
"u c #8E8E8E",
"i c #908F90",
"p c #938F93",
"a c #9B9C9B",
"s c #9E9C9E",
"d c gray62",
"f c #AAAAAA",
"g c gray67",
"h c #ACACAC",
"j c #B2B2B2",
"k c #B3B4B3",
"l c #BABDBA",
"z c #BABEBA",
"x c gray78",
"c c #E2E2E2",
"v c #EAEAEA",
"b c #EBEAEB",
"n c #EBECEB",
"m c #ECEBEC",
"M c #ECECEC",
"N c #EFF3EF",
"B c #F7F3F7",
"V c #F4F4F4",
"C c gray97",
"Z c #F7FBF7",
"A c #FBFBFB",
"S c #FDFCFD",
"D c #FDFDFD",
"F c white",
"G c None",
/* pixels */
"GGGGGGGGGGGGGGGGGGGGGGGGGGGGGGGG",
"GGGGGGGGGGGGGGGGGGGGGGGGGGGGGGGG",
"GGGGGGGGGGGGGGGGGGGGGGGGGGGGGGGG",
"GGGGGGGGGGGGGGGGGGGGGGGGGGGGGGGG",
"GGGGGGGGGGGGGGGGGGGGGGGGGGGGGGGG",
"GGGGGGG  <99; GGGG ;88<  GGGGGGG",
"GGGGGG-qzZAAny>XX>iMAAZl0=GGGGGG",
"GGGGG qbZZFFFFx>>xFFFFZZv0 GGGGG",
"GGGGG2mFFFFFFFFkkFFFFFFFFm3GGGGG",
"GGGG$uFFFFFFFFFFFFFFFFFFFFu%GGGG",
"GGGG cFFFFFFFFFFFFFFFFFFFFc GGGG",
"GGGG5CFFFFFFFFFFFFFFFFFFFFC5GGGG",
"GGGG7BFFFFFFFFFFFFFFFFFFFFN6GGGG",
"GGGG%BFFFFFFFFFFFFFFFFFFFFN@GGGG",
"GGGG hFFFFFFFFFFFFFFFFFFFFg GGGG",
"GGGG eVFFFFFFFFFFFFFFFFFFVw GGGG",
"GGGGGorCFFFFFFFFFFFFFFFFCr.GGGGG",
"GGGGGG%tSFFFFFFFFFFFFFFSt%GGGGGG",
"GGGGGGG#pBFFFFFFFFFFFFBp#GGGGGGG",
"GGGGGGGG+pDFFFFFFFFFFSp+GGGGGGGG",
"GGGGGGGGGOaFFFFFFFFFFaOGGGGGGGGG",
"GGGGGGGGGG:aDFFFFFFDa:GGGGGGGGGG",
"GGGGGGGGGGG*sFFFFFFs&GGGGGGGGGGG",
"GGGGGGGGGGGG,sDFFDs,GGGGGGGGGGGG",
"GGGGGGGGGGGGG*fCFd*GGGGGGGGGGGGG",
"GGGGGGGGGGGGGG4fj1GGGGGGGGGGGGGG",
"GGGGGGGGGGGGGGG$$GGGGGGGGGGGGGGG",
"GGGGGGGGGGGGGGGGGGGGGGGGGGGGGGGG",
"GGGGGGGGGGGGGGGGGGGGGGGGGGGGGGGG",
"GGGGGGGGGGGGGGGGGGGGGGGGGGGGGGGG",
"GGGGGGGGGGGGGGGGGGGGGGGGGGGGGGGG",
"GGGGGGGGGGGGGGGGGGGGGGGGGGGGGGGG"
};
