/* XPM */
static char *result[] = {
/* columns rows colors chars-per-pixel */
"32 32 97 2 ",
"   c black",
".  c #010001",
"X  c #010101",
"o  c #000200",
"O  c #000300",
"+  c #030203",
"@  c gray1",
"#  c #000400",
"$  c #020402",
"%  c #060306",
"&  c #070207",
"*  c #040404",
"=  c gray2",
"-  c #040704",
";  c #060606",
":  c #070707",
">  c #070B07",
",  c #080708",
"<  c gray3",
"1  c #090909",
"2  c gray4",
"3  c #080C08",
"4  c #101010",
"5  c #121312",
"6  c #141714",
"7  c #141814",
"8  c #1B1A1B",
"9  c #1C201C",
"0  c #202220",
"q  c gray16",
"w  c #2E2F2E",
"e  c gray19",
"r  c #313131",
"t  c #313431",
"y  c #3D403D",
"u  c #444444",
"i  c #464846",
"p  c #474847",
"a  c #4E4C4E",
"s  c #636463",
"d  c #626662",
"f  c #666766",
"g  c #676667",
"h  c #777777",
"j  c #7B7B7B",
"k  c #7B7D7B",
"l  c #7E7D7E",
"z  c #838383",
"x  c #838583",
"c  c #838783",
"v  c #8E8C8E",
"b  c #908D90",
"n  c gray58",
"m  c #989998",
"M  c #A09FA0",
"N  c #A0A0A0",
"B  c #A4A1A4",
"V  c #A4A2A4",
"C  c #A4A3A4",
"Z  c #B3B0B3",
"A  c #C1BEC1",
"S  c #C2BFC2",
"D  c #C0C1C0",
"F  c #C1C1C1",
"G  c #C1C2C1",
"H  c #C6C4C6",
"J  c #C8CBC8",
"K  c #CBCCCB",
"L  c #CDCECD",
"P  c #D1CFD1",
"I  c #D3D6D3",
"U  c #D4D1D4",
"Y  c #D5D2D5",
"T  c #D5D5D5",
"R  c #DAD6DA",
"E  c #D9DAD9",
"W  c #DADADA",
"Q  c #DEDCDE",
"!  c #DFDFDF",
"~  c gray88",
"^  c #E2E2E2",
"/  c #E4E8E4",
"(  c #EAE6EA",
")  c #EAEAEA",
"_  c #EEEEEE",
"`  c #EEF2EE",
"'  c #EEF3EE",
"]  c #F6F5F6",
"[  c #F6F6F6",
"{  c #F6F7F6",
"}  c #F6FAF6",
"|  c #F6FBF6",
" . c #FFFBFF",
".. c #FDFDFD",
"X. c #FEFEFE",
"o. c white",
"O. c None",
/* pixels */
"O.O.O.O.O.O.O.O.O.O.O.O.O.O.O.O.O.O.O.O.O.O.O.O.O.O.O.O.O.O.O.O.",
"O.O.O.O.O.O.O.O.O.O.O.O.O.O.O.O.O.O.O.O.O.O.O.O.O.O.O.O.O.O.O.O.",
"O.O.O.O.O.O.O.O.O.O.O.O.O.O.O., O O O.O.O.O.O.O.O.O.O.O.O.O.O.O.",
"O.O.O.O.O.O.O.O.O.O.O.O.O.  8 v H h 2 O.O.O.O.O.O.O.O.O.O.O.O.O.",
"O.O.O.O.O.O.O.O.O.O.O.O.> i ^ o.o...G 9 % O.O.O.O.O.O.O.O.O.O.O.",
"O.O.O.O.O.O.O.O.O.O.  5 m o.o.o.o.o.o.) a & O.O.O.O.O.O.O.O.O.O.",
"O.O.O.O.O.O.O.O.O.o u I X.o.o.o.o.o.o.o.o.m 7 o O.O.O.O.O.O.O.O.",
"O.O.O.O.O.O.O.  6 l | } o.o.o.o.o.o.o.o.o.o.L y @ O.O.O.O.O.O.O.",
"O.O.O.O.O.O.: w K o.o.o.o.o.o.o.o.o.o.o.o.o.o.[ k : o O.O.O.O.O.",
"O.O.O.O.  2 k ` o.o.o.o.o.o.o.o.o.o.o.o.o.o.o.o.' J 0 O O.O.O.O.",
"O.O.O.  t G ..o.o.o.o.o.o.o.o.o.o.o.o.o.o.o.o.o.o.o./ d O O.O.O.",
"O.O.O.r ) o.o.o.o.o.o.o.o.o.o.o.o.o.o.o.o.o.o.o.o.o.| } p o O.O.",
"O.O.; j o.o.o.o.o.o.| | | |  . .o.o.o.o.o.o.o.o.o.o.o.o.j ; O.O.",
"O.O.; j o.o.o.o.o._ c c x x b R o.o.o.o.o.o.o.o.o.o.o.o.j ; O.O.",
"O.O.o f o.o.o.o.o.W =   . . # D o.o.o.o.o.o.o.o.o.o.o.o.g o O.O.",
"O.O.O.6 N ! Q o.o.E =       # D o.o.o.o.o.o.o.o.o.] ! M 6 O.O.O.",
"O.O.O.O.$ - 3 { o.W =       # D o.o.o.o.o.o.o.o. .A 1 @ O.O.O.O.",
"O.O.O.O.O.O.> [ o.E =       # D o.o.o.o.o.o.o.o. .A ; O.O.O.O.O.",
"O.O.O.O.O.O.: { o.~ q q q q q L o.o.o.o.o.o.o.o. .A * O.O.O.O.O.",
"O.O.O.O.O.O.: [ o.o.{ [ { [ { [ o.o.o.o.o.o.o.o. .A * O.O.O.O.O.",
"O.O.O.O.O.O.: { o.o.o.o.o.o.o.o.o.o.o.o.o.o.o.o. .A * O.O.O.O.O.",
"O.O.O.O.O.O.: [ o.o.o.o.o.o.o.o.o.o.o.o.o.o.o.o. .A * O.O.O.O.O.",
"O.O.O.O.O.O.: { o.o.o.o.o.o.o.o. .P j j j j z {  .A * O.O.O.O.O.",
"O.O.O.O.O.O.: [ o.o.o.o.o.o.o.o. .C < < < < 4 [  .A * O.O.O.O.O.",
"O.O.O.O.O.O.: { o.o.o.o.o.o.o.o. .V +       < {  .A * O.O.O.O.O.",
"O.O.O.O.O.O.: [ o.o.o.o.o.o.o.o. .B @       < [  .A * O.O.O.O.O.",
"O.O.O.O.O.O.>  .o.o.o.o.o.o.o.o. .V +       < {  .S * O.O.O.O.O.",
"O.O.O.O.O.O.> ( o.o.o.o.o.o.o.o. .B @       < [  .Z * O.O.O.O.O.",
"O.O.O.O.O.O.# s T T T T T T T T U n +       < Y F e   O.O.O.O.O.",
"O.O.O.O.O.O.O.O : : : : : : : : O O X       : : ; ; O.O.O.O.O.O.",
"O.O.O.O.O.O.O.O.O.O.O.O.O.O.O.O.O.O.O.O.O.O.O.O.O.O.O.O.O.O.O.O.",
"O.O.O.O.O.O.O.O.O.O.O.O.O.O.O.O.O.O.O.O.O.O.O.O.O.O.O.O.O.O.O.O."
};
