/* XPM */
static char *result[] = {
/* columns rows colors chars-per-pixel */
"27 32 78 1 ",
"  c black",
". c #010101",
"X c #020202",
"o c #060606",
"O c gray3",
"+ c #090909",
"@ c gray4",
"# c #0B0B0B",
"$ c #0C0C0C",
"% c gray5",
"& c #0E0E0E",
"* c gray6",
"= c #111111",
"- c gray8",
"; c #161616",
": c gray9",
"> c #181818",
", c gray10",
"< c #1B1B1B",
"1 c gray17",
"2 c #2C2C2C",
"3 c #2D2D2D",
"4 c gray18",
"5 c #313131",
"6 c #444444",
"7 c #464646",
"8 c #4B4B4B",
"9 c #4E4E4E",
"0 c #5A5A5A",
"q c gray36",
"w c gray37",
"e c gray38",
"r c gray40",
"t c #676767",
"y c #6A6A6A",
"u c gray42",
"i c #6D6D6D",
"p c gray43",
"a c #6F6F6F",
"s c #717171",
"d c #777777",
"f c #808080",
"g c gray51",
"h c #848484",
"j c gray53",
"k c #888888",
"l c #929292",
"z c gray58",
"x c #9D9D9D",
"c c #A0A0A0",
"v c #A2A2A2",
"b c gray64",
"n c #A7A7A7",
"m c gray66",
"M c #A9A9A9",
"N c #AAAAAA",
"B c gray67",
"V c #ACACAC",
"C c gray69",
"Z c #B1B1B1",
"A c gray70",
"S c #BCBCBC",
"D c gray75",
"F c gray84",
"G c #D7D7D7",
"H c #D8D8D8",
"J c gray85",
"K c gray91",
"L c #E9E9E9",
"P c gray92",
"I c #ECECEC",
"U c gray95",
"Y c #F4F4F4",
"T c gray97",
"R c #F9F9F9",
"E c #FEFEFE",
"W c white",
"Q c None",
/* pixels */
"QQQQQQQQQQQQ   QQQQQQQQQQQQ",
"QQQQQQQQQQQQ    QQQQQQQQQQQ",
"QQQQQQQQQQQ  u  QQQQQQQQQQQ",
"QQQQQQQQQQQ 2H1 QQQQQQQQQQQ",
"QQQQQQQQQQ  xJf  QQQQQQQQQQ",
"QQQQQQQQQQ ;TJC: QQQQQQQQQQ",
"QQQQQQQQQ  gWJAp  QQQQQQQQQ",
"QQQQQQQQQ OKWJAN+ QQQQQQQQQ",
"QQQQQQQQ  tWWJAA0  QQQQQQQQ",
"QQQQQQQQ .FWWJAAvX QQQQQQQQ",
"QQQQQQQQ 8WWWJAAA6  QQQQQQQ",
"QQQQQQQ  SWWWJAAAl  QQQQQQQ",
"QQQQQQQ 3EWWWJAAAA3 QQQQQQQ",
"QQQQQQ  cWWWWJAAAAg  QQQQQQ",
"QQQQQQ :TWWWWJAAAAZ> QQQQQQ",
"QQQQQ  hWWWWWJAAAAAa  QQQQQ",
"QQQQQ @PWWWWWJAAAAAB# QQQQQ",
"QQQQ  yWWWWWWJAAAAAAq  QQQQ",
"QQQQ .GWWWWWWJAAAAAAvX QQQQ",
"QQQQ 9WWWWWWWJAAAAAAA7  QQQ",
"QQQ  DWWWWWWWJAAAAAAAz  QQQ",
"QQQ 5WWWWWWWWFAAAAAAAA4 QQQ",
"QQ  bWWWWWWLd%0nAAAAAAh  QQ",
"QQ ,RWWWWPd+   o0mAAAAC< QQ",
"Q  jWWWIf&   Q   @eMAAAs  Q",
"Q @IWUk*   QQQQQ   $tVAV$ Q",
"  iYk=   QQQQQQQQQ   %tVw  ",
"  r-   QQQQQQQQQQQQQ   -0  ",
"     QQQQQQQQQQQQQQQQQ     ",
"Q  QQQQQQQQQQQQQQQQQQQQQ  Q",
"QQQQQQQQQQQQQQQQQQQQQQQQQQQ",
"QQQQQQQQQQQQQQQQQQQQQQQQQQQ"
};
