/* XPM */
static char *result[] = {
/* columns rows colors chars-per-pixel */
"27 31 74 1 ",
"  c black",
". c #010101",
"X c gray1",
"o c #040404",
"O c gray2",
"+ c #060606",
"@ c gray3",
"# c #090909",
"$ c gray4",
"% c gray5",
"& c #131313",
"* c gray9",
"= c #181818",
"- c gray10",
"; c #1B1B1B",
": c gray17",
"> c #2D2D2D",
", c gray18",
"< c #313131",
"1 c #444444",
"2 c #464646",
"3 c #4B4B4B",
"4 c #4E4E4E",
"5 c #5A5A5A",
"6 c gray36",
"7 c gray37",
"8 c gray38",
"9 c gray40",
"0 c #676767",
"q c #686868",
"w c #6A6A6A",
"e c gray42",
"r c #6D6D6D",
"t c gray43",
"y c #6F6F6F",
"u c #717171",
"i c #777777",
"p c #808080",
"a c gray51",
"s c #848484",
"d c gray53",
"f c #929292",
"g c gray58",
"h c #9D9D9D",
"j c #A0A0A0",
"k c #A2A2A2",
"l c gray64",
"z c gray65",
"x c #A7A7A7",
"c c gray66",
"v c #AAAAAA",
"b c gray67",
"n c #ACACAC",
"m c gray69",
"M c #B1B1B1",
"N c gray70",
"B c #BCBCBC",
"V c gray75",
"C c #D5D5D5",
"Z c gray84",
"A c #D7D7D7",
"S c #D8D8D8",
"D c gray85",
"F c gray91",
"G c #EAEAEA",
"H c gray92",
"J c #ECECEC",
"K c #F1F1F1",
"L c #F3F3F3",
"P c gray97",
"I c #F9F9F9",
"U c #FEFEFE",
"Y c white",
"T c None",
/* pixels */
"TTTTTTTTTTTTTTTTTTTTTTTTTTT",
"  TTTTTTTTTTTTTTTTTTTTT  TT",
"    TTTTTTTTTTTTTTTTT     T",
" 5&   TTTTTTTTTTTTT   &9  T",
" 7b0@   TTTTTTTTT   %dLr  T",
" +nNb0+   TTTTT   $dKYJo TT",
"  uNNNc8o   T   #pHYYYd  TT",
"T ;mNNNNx5.   XiGYYYYI- TTT",
"T  sNNNNNNz5@iFUYYYYYl  TTT",
"TT ,NNNNNNNNCUYYYYYYY< TTTT",
"TT  gNNNNNNNDYYYYYYYV  TTTT",
"TT  2NNNNNNNDYYYYYYY4 TTTTT",
"TTT  kNNNNNNDYYYYYYA  TTTTT",
"TTT  6NNNNNNDYYYYYYw  TTTTT",
"TTTT ObNNNNNDYYYYYHo TTTTTT",
"TTTT  yNNNNNDYYYYYs  TTTTTT",
"TTTTT =MNNNNDYYYYP* TTTTTTT",
"TTTTT  aNNNNDYYYYj  TTTTTTT",
"TTTTTT >NNNNDYYYU> TTTTTTTT",
"TTTTTT  fNNNDYYYB  TTTTTTTT",
"TTTTTT  1NNNDYYY3 TTTTTTTTT",
"TTTTTTT  kNNDYYZ  TTTTTTTTT",
"TTTTTTT  5NNDYYq  TTTTTTTTT",
"TTTTTTTT XvNDYFX TTTTTTTTTT",
"TTTTTTTT  tNDYa. TTTTTTTTTT",
"TTTTTTTTT *mDP*.TTTTTTTTTTT",
"TTTTTTTTT  pDh. TTTTTTTTTTT",
"TTTTTTTTTT :S>.TTTTTTTTTTTT",
"TTTTTTTTTT  e. TTTTTTTTTTTT",
"TTTTTTTTTT    TTTTTTTTTTTTT",
"TTTTTTTTTTT   TTTTTTTTTTTTT"
};
