/* XPM */
static char *result[] = {
/* columns rows colors chars-per-pixel */
"32 27 74 1 ",
"  c black",
". c #010101",
"X c gray1",
"o c #040404",
"O c gray2",
"+ c #060606",
"@ c gray3",
"# c #090909",
"$ c gray4",
"% c gray5",
"& c #131313",
"* c #161616",
"= c gray9",
"- c #181818",
"; c gray10",
": c #1B1B1B",
"> c gray17",
", c #2C2C2C",
"< c #2D2D2D",
"1 c gray18",
"2 c #313131",
"3 c #444444",
"4 c #464646",
"5 c #4B4B4B",
"6 c #4E4E4E",
"7 c #5A5A5A",
"8 c gray36",
"9 c gray37",
"0 c gray38",
"q c gray40",
"w c #676767",
"e c #6A6A6A",
"r c gray42",
"t c #6D6D6D",
"y c gray43",
"u c #6F6F6F",
"i c #717171",
"p c #777777",
"a c #808080",
"s c gray51",
"d c #848484",
"f c gray53",
"g c #929292",
"h c gray58",
"j c #9D9D9D",
"k c #A0A0A0",
"l c #A2A2A2",
"z c gray64",
"x c #A7A7A7",
"c c gray66",
"v c #A9A9A9",
"b c #AAAAAA",
"n c gray67",
"m c #ACACAC",
"M c gray69",
"N c #B1B1B1",
"B c gray70",
"V c #BCBCBC",
"C c gray75",
"Z c gray84",
"A c #D7D7D7",
"S c #D8D8D8",
"D c gray85",
"F c gray91",
"G c #E9E9E9",
"H c gray92",
"J c #ECECEC",
"K c #F1F1F1",
"L c #F3F3F3",
"P c gray97",
"I c #F9F9F9",
"U c #FEFEFE",
"Y c white",
"T c None",
/* pixels */
"TTT   TTTTTTTTTTTTTTTTTTTTTTTTTT",
"TT      TTTTTTTTTTTTTTTTTTTTTTTT",
"TT  qto   TTTTTTTTTTTTTTTTTTTTTT",
"TTT &LJf;   TTTTTTTTTTTTTTTTTTTT",
"TTT  fYYIz2    TTTTTTTTTTTTTTTTT",
"TTTT %KYYYYC6    TTTTTTTTTTTTTTT",
"TTTT  fYYYYYYAeo   TTTTTTTTTTTTT",
"TTTTT $HYYYYYYYHd=   TTTTTTTTTTT",
"TTTTT  aYYYYYYYYYPk<    TTTTTTTT",
"TTTTTT #HYYYYYYYYYYUV5    TTTTTT",
"TTTTTT  pYYYYYYYYYYYYYZwX   TTTT",
"TTTTTTT XGYYYYYYYYYYYYYYFs*   TT",
"TTTTTTT  pYYYYYYYYYYYYYYYYPj,   ",
"TTTTTTTT @ZDDDDDDDDDDDDDDDDDSr  ",
"TTTTTTT  7BBBBBBBBBBBBBBBBMa>   ",
"TTTTTTT .xBBBBBBBBBBBBBBby=    T",
"TTTTTT  7BBBBBBBBBBBBBl7X   TTTT",
"TTTTTT ocBBBBBBBBBBBg3    TTTTTT",
"TTTTT  0BBBBBBBBBNs<    TTTTTTTT",
"TTTTT +vBBBBBBBnu-    TTTTTTTTTT",
"TTTT  wBBBBBBl8O   TTTTTTTTTTTTT",
"TTTT @mBBBBh4    TTTTTTTTTTTTTTT",
"TTT  wBBMd1    TTTTTTTTTTTTTTTTT",
"TTT &mmi:    TTTTTTTTTTTTTTTTTTT",
"TT  79+   TTTTTTTTTTTTTTTTTTTTTT",
"TT      TTTTTTTTTTTTTTTTTTTTTTTT",
"TTT   TTTTTTTTTTTTTTTTTTTTTTTTTT"
};
