/* XPM */
static char *result[] = {
/* columns rows colors chars-per-pixel */
"32 32 112 2 ",
"   c black",
".  c #010101",
"X  c #000200",
"o  c #000300",
"O  c #020302",
"+  c gray1",
"@  c #030503",
"#  c #030603",
"$  c #040304",
"%  c #070207",
"&  c #070307",
"*  c #040404",
"=  c gray2",
"-  c #040604",
";  c #060606",
":  c #080608",
">  c gray3",
",  c #090809",
"<  c #1B171B",
"1  c #181818",
"2  c #1D1C1D",
"3  c #1C1F1C",
"4  c #1D201D",
"5  c #222222",
"6  c #232323",
"7  c #232723",
"8  c #242324",
"9  c #2B272B",
"0  c #2F2E2F",
"q  c #312F31",
"w  c #303330",
"e  c #373737",
"r  c #3B3A3B",
"t  c #3B3C3B",
"y  c gray24",
"u  c #3D3E3D",
"i  c #3F3E3F",
"p  c #3F423F",
"a  c #414541",
"s  c #444444",
"d  c gray27",
"f  c #454C45",
"g  c #464C46",
"h  c #4A4B4A",
"j  c #4C4B4C",
"k  c #524D52",
"l  c #646064",
"z  c #686468",
"x  c #686668",
"c  c #777377",
"v  c #757475",
"b  c #757675",
"n  c #777777",
"m  c #7B777B",
"M  c #7B797B",
"N  c #7B7B7B",
"B  c #807D80",
"V  c #838383",
"C  c #838583",
"Z  c #838783",
"A  c #878587",
"S  c gray53",
"D  c #898589",
"F  c #8B8D8B",
"G  c #8E8E8E",
"H  c gray62",
"J  c #9F9F9F",
"K  c #A2A2A2",
"L  c #A0A4A0",
"P  c #A4A4A4",
"I  c #A6A5A6",
"U  c #B5B7B5",
"Y  c #BFBCBF",
"T  c #BFBDBF",
"R  c #BDC0BD",
"E  c #BFC0BF",
"W  c #C0BDC0",
"Q  c #C5C2C5",
"!  c #C5C6C5",
"~  c #C8C4C8",
"^  c #CDCBCD",
"/  c gray81",
"(  c #D1D5D1",
")  c #D3D4D3",
"_  c #D5D3D5",
"`  c gray83",
"'  c #D8D4D8",
"]  c #D9D8D9",
"[  c #D9DAD9",
"{  c #DAD8DA",
"}  c #DADADA",
"|  c #DCDADC",
" . c #DFDCDF",
".. c #E3E7E3",
"X. c #E9E5E9",
"o. c #EEEFEE",
"O. c #F2F3F2",
"+. c #F4F4F4",
"@. c #F6F6F6",
"#. c #F6F7F6",
"$. c #F7F9F7",
"%. c #F6FAF6",
"&. c #F6FBF6",
"*. c #FBFBFB",
"=. c #FFFAFF",
"-. c #FFFBFF",
";. c gray99",
":. c #FDFDFD",
">. c #FEFEFE",
",. c #FFFEFF",
"<. c white",
"1. c None",
/* pixels */
"1.1.1.1.1.1.1.1.1.1.1.1.1.1.1.1.1.1.1.1.1.1.1.1.1.1.1.1.1.1.1.1.",
"1.1.1.1.1.1.1.1.1.1.1.1.1.1.1.1.1.1.1.1.1.1.1.1.1.1.1.1.1.1.1.1.",
"1.1.1.1.1.1.1.1.1.1.1.1.1.1.1.1.1.1.1.1.1.1.1.1.1.1.1.1.1.1.1.1.",
"1.1.1.1.1.1.1.1.1.1.1.1.1.1.1.1.1.1.1.1.1.1.1.1.1.1.1.1.1.1.1.1.",
"1.1.1.1.1.1.1.1.1.1.1.1.1.1.1.1.1.1.1.1.1.1.1.1.1.1.1.1.1.1.1.1.",
"1.1.1.1.1.1.1.1.1.1.1.1.1.1.1.1.1.1.1.1.1.1.1.1.1.1.1.1.1.1.1.1.",
"1.1.1.1.1.1.1.1.1.1.1.                              o 1.1.1.1.1.",
"1.1.1.1.1.1.1.1.1.1.1.0 Y T E E E E E E E E E E Y T a X 1.1.1.1.",
"1.1.1.              X s *.<.<.<.<.<.<.<.<.<.<.<.<.<._ 4 1.1.1.1.",
"1.1.  H E E E E E E D s *.<.<.<.<.<.<.<.<.<.<.<.<.<.-.V + 1.1.1.",
"1.1.& o.&.&.<.<.<.<.U g *.<.<.<.<.<.<.<.<.<.<.<.<.<.<.+.0 1.1.1.",
"1.1.< M V V ! <.<.<.U f *.<.<.<.<.<.<.<.<.<.<.<.<.<.<.<.~ > 1.1.",
"1.1.        C &.<.<.U g *.<.<.<.<.<.<.<.<.<.<.<.<.<.<.<.-.B   1.",
"1.          C %.<.<.U f *.<.<.<.<.<.<.<.<.<.<.<.<.<.<.<.-.X.2 1.",
"1.          C &.<.<.U g *.<.<.<.<.<.<.<.<.<.<.<.<.<.<.<.<.,.n 1.",
"1.          C %.<.<.U f *.<.<.<.<.<.<.<.<.<.<.<.<.<.<.<.<.<.n 1.",
"1.. i i p p I <.<.<.U g *.<.<.<.<.<.<.<.<.<.<.<.<.<.<.<.<.<.M 1.",
"1.> -.=.<.<.<.<.<.<.U f *.<.<.<.<.<.<.<.<.<.<.<.<.<.<.<.<.<.M 1.",
"1.> $.<.<.<.@.#.-.-.U g *.<.<.<.<.<.<.<.@.#.&.&.<.<.<.<.<.<.M 1.",
"1.> $.<.<.F w 3 k ' U f *.<.<.<.<.<.<.>./ s 1 u K <.<.<.<.<.M 1.",
"1.> O.<.C e Q | A 8 L h -.-.<.<.<.<.&.( 9 S  .W 5 J <.<.<.<.M 1.",
"1.; ` ) 6 R <.<.-.j h t { ] } [ } [ ( b v %.-.=.J d } [ } [ x 1.",
"1.  - - > o.<.<.&.Z . . - - - - - - * $ P #.<.<.^ o @ # - - O 1.",
"1.1.1.1.: G :.<...7 1.1.1.1.1.1.1.1.1.1.y @.<.;.N X 1.1.1.1.1.1.",
"1.1.1.1.1., z m q   1.1.1.1.1.1.1.1.1.1.  r c l = 1.1.1.1.1.1.1.",
"1.1.1.1.1.1.1.% 1.1.1.1.1.1.1.1.1.1.1.1.1.1.% 1.1.1.1.1.1.1.1.1.",
"1.1.1.1.1.1.1.1.1.1.1.1.1.1.1.1.1.1.1.1.1.1.1.1.1.1.1.1.1.1.1.1.",
"1.1.1.1.1.1.1.1.1.1.1.1.1.1.1.1.1.1.1.1.1.1.1.1.1.1.1.1.1.1.1.1.",
"1.1.1.1.1.1.1.1.1.1.1.1.1.1.1.1.1.1.1.1.1.1.1.1.1.1.1.1.1.1.1.1.",
"1.1.1.1.1.1.1.1.1.1.1.1.1.1.1.1.1.1.1.1.1.1.1.1.1.1.1.1.1.1.1.1.",
"1.1.1.1.1.1.1.1.1.1.1.1.1.1.1.1.1.1.1.1.1.1.1.1.1.1.1.1.1.1.1.1.",
"1.1.1.1.1.1.1.1.1.1.1.1.1.1.1.1.1.1.1.1.1.1.1.1.1.1.1.1.1.1.1.1."
};
