/* XPM */
static char *result[] = {
/* columns rows colors chars-per-pixel */
"34 15 35 1 ",
"  c black",
". c #010101",
"X c gray1",
"o c #060606",
"O c #070707",
"+ c gray3",
"@ c #0B0B0B",
"# c #0E0E0E",
"$ c #131313",
"% c gray8",
"& c #161616",
"* c gray9",
"= c #1E1E1E",
"- c gray12",
"; c gray13",
": c #252525",
"> c gray15",
", c #282828",
"< c gray19",
"1 c gray20",
"2 c gray23",
"3 c gray24",
"4 c gray25",
"5 c #434343",
"6 c gray27",
"7 c gray29",
"8 c #4C4C4C",
"9 c #4E4E4E",
"0 c gray33",
"q c gray34",
"w c #626262",
"e c #646464",
"r c #656565",
"t c gray40",
"y c None",
/* pixels */
"yy                     yyyyyyyyyyy",
"y #<<<<<<<<<<<<<<<<<<;           y",
" O,tttttttttttttttttt8##########+ ",
" 1tttttttttttttttttttttttttttttt3 ",
" 1tttttttttttttttttttttttttttttt3 ",
" 1tttttttttttttttttttttttttttttt3 ",
" -336ttttttttttttttttttttttttq33: ",
"    &tttttttttttttttttttttttt>    ",
"yyy 2ttttt0%%%%%%4ttttttttttwo yyy",
"yy #ettttt=      X##########@ yyyy",
"yy 5ttttt9 yyyyyy            yyyyy",
"y $rttttt* yyyyyyyyyyyyyyyyyyyyyyy",
"y 7ttttt6 yyyyyyyyyyyyyyyyyyyyyyyy",
" .%%%%%%O yyyyyyyyyyyyyyyyyyyyyyyy",
"y        yyyyyyyyyyyyyyyyyyyyyyyyy"
};
